<?xml version="1.0" encoding="UTF-8" standalone="no"?>
<svg width="197px" height="85px" viewBox="0 0 197 85" version="1.1" xmlns="http://www.w3.org/2000/svg" xmlns:xlink="http://www.w3.org/1999/xlink">
    <!-- Generator: Sketch 45.2 (43514) - http://www.bohemiancoding.com/sketch -->
    <title>fireLogo</title>
    <desc>Created with Sketch.</desc>
    <defs></defs>
    <g id="Page-1" stroke="none" stroke-width="1" fill="none" fill-rule="evenodd">
        <g id="menu" transform="translate(-701.000000, -174.000000)" fill="#FFFFFF">
            <g id="Group-9" transform="translate(40.000000, 40.000000)">
                <g id="Group-7" transform="translate(634.000000, 26.000000)">
                    <path d="M67.5437064,116.053627 C67.5437064,116.053627 62.2595981,121.403068 61.2338747,126.838095 C60.2081514,132.273121 63.8942221,135.392104 63.8942221,135.392104 L50.5029796,153.931563 C50.5029796,153.931563 41.8006647,141.132235 45.3279769,132.391374 C48.283628,125.066272 67.8115705,115.674697 67.5437064,116.053627 Z M142.152141,108.130731 L125.696142,130.912895 C122.045351,135.967032 117.665447,140.453428 112.698856,144.224431 L106.602662,148.853253 C106.602662,148.853253 121.233919,131.629594 117.093133,126.940014 C113.446915,122.811641 99.9981799,126.177581 95.9632326,129.549401 C95.1178276,130.066183 94.3266486,130.645684 93.6151756,131.224532 C91.8407396,132.667731 90.2943147,134.369648 88.9549945,136.223789 L56.5212315,181.125644 C53.7570052,184.951527 49.6449653,187.587047 45.0141839,188.500399 L27,192.052537 L78.295312,120.954885 C78.295312,120.954885 81.9500229,116.538395 78.5344297,113.832315 C76.0217342,111.841628 70.7964253,114.179885 70.1267652,114.492175 L79.5444731,110.041059 C82.2054738,108.783404 85.1121254,108.130731 88.0553633,108.130731 L98.7999783,108.130731 L109.247329,108.130731 L142.152141,108.130731 Z M88.6565547,141.420483 C90.4179242,138.981613 93.2755763,137.872917 96.2750003,137.640333 C99.133959,137.418202 104.859716,136.499624 108.490908,134.986519 C113.619524,132.850793 115.945368,130.206779 115.945368,130.206779 C115.945368,130.206779 112.875385,136.627023 109.144234,141.558335 C106.037665,145.664495 102.390141,148.375148 100.433426,148.853383 C93.0482185,150.660486 81.6842495,151.072735 81.6842495,151.072735 L88.6565547,141.420483 Z M80.5397514,152.608707 L81.2669043,153.004623 C89.6987419,156.741653 98.5336822,168.527671 93.128055,176.000425 L81.3838498,192.257813 C81.3838498,192.257813 71.4454403,177.049014 72.3163251,168.773322 C73.1872099,160.49763 80.5397514,152.608707 80.5397514,152.608707 Z M171.535913,112.728911 C170.633015,113.638342 168.899085,115.877294 166.949558,118.514775 C160.791951,126.846 151.059339,131.778618 140.700187,131.778618 L134.159078,131.778618 L147.143951,113.802981 C149.776205,110.15807 153.998004,108.000131 158.493547,108.000131 L182.192329,108.000131 C179.477755,108.000131 176.810874,108.774323 174.556897,110.286775 C173.53052,110.974728 172.459717,111.798574 171.535913,112.728911 Z M223.476712,108 L202.227253,137.418006 C202.227253,137.418006 199.915129,122.709656 186.794364,122.690056 L167.290594,122.709656 C167.290594,122.709656 171.414394,116.112361 177.417162,111.913428 C181.587348,108.996977 187.965779,108 189.086888,108 L223.476712,108 Z M189.816327,140.374768 L199.914802,140.374768 L166.673527,186.393811 C164.520161,189.374942 161.303179,191.360403 157.743201,191.986943 L155.316745,192.199928 L132.686152,192.199928 L120.424512,192.199928 L111.679078,192.199928 L90.5145512,192.199928 L123.755826,146.181537 C126.389387,142.53532 130.614453,140.374768 135.112609,140.374768 L153.201272,140.374768 L161.175127,140.374768 L151.895925,153.244002 L134.810118,153.244002 L130.760798,158.86784 L147.859017,158.86784 L137.869648,172.722291 L120.787109,172.722291 L116.738442,178.345476 L155.772113,178.345476 L159.820781,172.722291 L141.711211,172.722291 L151.71822,158.86784 L169.79447,158.86784 L172.271886,155.42742 C172.520803,155.191569 172.756654,154.937425 172.961145,154.653881 L173.979682,153.244002 L155.73814,153.244002 L157.419151,150.916851 C162.200197,144.296689 169.870256,140.374768 178.036189,140.374768 L183.275218,140.374768 L189.816327,140.374768 Z M166.392923,138.536632 C166.392923,138.536632 181.01046,134.780002 185.583749,131.612673 C189.092768,129.183604 190.697992,125.82681 190.697992,125.82681 L191.532944,126.254086 C195.273241,128.16964 198.181199,131.388582 199.707371,135.303317 L200.532523,138.536632 L166.392923,138.536632 Z" id="fireLogo"></path>
                </g>
            </g>
        </g>
    </g>
</svg>