<?xml version="1.0" encoding="UTF-8" standalone="no"?>
<svg width="148px" height="50px" viewBox="0 0 148 50" version="1.1" xmlns="http://www.w3.org/2000/svg" xmlns:xlink="http://www.w3.org/1999/xlink">
    <!-- Generator: Sketch 45.2 (43514) - http://www.bohemiancoding.com/sketch -->
    <title>Combined Shape Copy 2</title>
    <desc>Created with Sketch.</desc>
    <defs></defs>
    <g id="Page-1" stroke="none" stroke-width="1" fill="none" fill-rule="evenodd">
        <g id="瞄準鏡" transform="translate(-351.000000, -404.000000)" fill="#C2C2C2">
            <path d="M413.220076,412.596033 L410.675559,412.596033 L412.140072,408.911903 L414.684589,408.911903 L416.629401,404 L431.039207,404 L429.094394,408.911903 L443.674049,408.911903 L445.618862,404 L452.902786,404 L452.908689,404 L456.368191,404 L453.987083,405.041993 C452.829802,405.548886 451.9175,406.496497 451.447665,407.67952 L446.569802,419.964294 L439.280243,419.964294 L442.209537,412.596033 L427.629882,412.596033 L426.165101,416.280164 L437.099842,416.280164 L435.635329,419.964294 L424.700588,419.964294 L421.602787,419.964294 L410.290783,419.964294 L413.220076,412.596033 Z M428.386297,437.015649 L426.918532,440.684073 L443.378309,440.684073 L441.929638,444.304156 L425.469861,444.304156 L422.856498,450.83516 C422.365182,452.063099 421.147782,452.911881 419.878211,452.911881 L411.018109,452.911881 L406.450775,452.911881 L407.175245,451.101974 L409.594985,451.101974 C410.864287,451.101974 412.082225,450.252922 412.573541,449.025253 L414.462434,444.304156 L398.093822,444.304156 L399.542493,440.684073 L415.911106,440.684073 L417.37887,437.015649 L413.314416,437.015649 L406.756536,437.015649 L403.400148,437.015649 L409.271744,422.341955 L412.628132,422.341955 L419.186011,422.341955 L438.495262,422.341955 L442.407777,422.341955 L448.236884,422.341955 L442.365288,437.015649 L436.536181,437.015649 L432.623936,437.015649 L428.386297,437.015649 Z M462.145379,444.420235 L460.039336,444.420235 L454.820198,444.420235 L451.157607,444.420235 L444.717875,444.420235 L443.832425,444.420235 L452.62383,422.341955 L453.50901,422.341955 L459.949011,422.341955 L463.611602,422.341955 L468.83047,422.341955 L470.936783,422.341955 L462.145379,444.420235 Z M463.611119,419.964294 L453.318951,419.964294 L459.185221,405.227772 L459.674211,404 L497.363532,404 L493.941676,412.596033 L466.543986,412.596033 L465.566274,415.05212 L486.096607,415.05212 L484.141453,419.964294 L463.611119,419.964294 Z M495.239178,422.341955 L498.71875,422.341955 L496.326291,423.380856 C495.162931,423.885858 494.245553,424.83159 493.774605,426.011729 L486.454705,444.352496 L477.958514,444.352496 L485.272755,426.010379 L482.758249,426.010379 L472.80422,450.83516 C472.311988,452.063099 471.09205,452.911881 469.820382,452.911881 L469.625591,452.911881 L461.085753,452.911881 L460.943768,452.911881 L456.368191,452.911881 L457.093742,451.101974 L459.517992,451.101974 C460.789929,451.101974 462.009867,450.252922 462.502099,449.025253 L473.201077,422.341955 L473.343062,422.341955 L476.316931,422.341955 L477.878226,422.341955 L481.882631,422.341955 L484.229018,422.341955 L487.919547,422.341955 L491.626781,422.341955 L492.862076,422.341955 L495.239178,422.341955 Z M406.488364,419.71803 C405.323316,420.221954 404.404735,421.164987 403.931527,422.341888 L391.638656,452.911881 L383.116585,452.911881 L395.409457,422.341888 L392.91829,422.341888 L380.625419,452.911881 L372.344682,452.911881 L392.013222,404 L395.684301,404 L400.293959,404 L411.307196,404 L407.373434,413.782484 L396.360197,413.782484 L394.393316,418.673456 L398.064395,418.673456 L405.406553,418.673456 L405.405742,418.675887 L408.896024,418.675887 L406.488364,419.71803 Z M384.060236,412.491646 L374.4094,412.491646 L365.907397,412.491646 L366.630417,410.696063 L372.988596,410.696063 C374.255829,410.696063 375.471513,409.853462 375.962029,408.635241 L377.828781,404 L389.62371,404 L387.033937,410.43136 C386.543422,411.649045 385.327737,412.491646 384.060236,412.491646 Z M361.209954,433.550928 L367.262615,433.550928 L360.305183,451.160394 C359.816703,452.396866 358.606332,453.251547 357.344091,453.251547 L354.632987,453.251547 L351,453.251547 L351.720287,451.429062 L352.01145,451.429062 C353.273424,451.429062 354.48433,450.57411 354.972543,449.337909 L361.209954,433.550928 Z M368.497155,415.208973 L385.219252,415.208973 L382.764976,421.344915 L381.292465,425.026752 L380.310431,427.480858 L378.837919,431.162424 L370.002041,453.251547 L361.863029,453.251547 L370.698907,431.162424 L358.453698,431.162424 L359.92648,427.480858 L372.171419,427.480858 L373.153453,425.026752 L360.908244,425.026752 L362.381025,421.344915 L363.927729,421.344915 L369.437911,421.344915 L370.9517,421.344915 L368.497155,415.208973 Z M418.907966,433.550928 L421.810135,426.07828 L418.952627,426.07828 L416.050459,433.550928 L418.907966,433.550928 Z M453.318951,440.683911 L455.84524,440.683911 L461.789063,426.07828 L459.262773,426.07828 L453.318951,440.683911 Z M432.925892,426.07828 L429.941442,433.550928 L433.055473,433.550928 L436.039923,426.07828 L432.925892,426.07828 Z" id="Combined-Shape-Copy-2"></path>
        </g>
    </g>
</svg>