<?xml version="1.0" encoding="UTF-8" standalone="no"?>
<svg width="290px" height="97px" viewBox="0 0 290 97" version="1.1" xmlns="http://www.w3.org/2000/svg" xmlns:xlink="http://www.w3.org/1999/xlink">
    <!-- Generator: Sketch 45.2 (43514) - http://www.bohemiancoding.com/sketch -->
    <title>Combined Shape Copy 2</title>
    <desc>Created with Sketch.</desc>
    <defs></defs>
    <g id="Page-1" stroke="none" stroke-width="1" fill="none" fill-rule="evenodd">
        <g id="作品介紹-copy-12" transform="translate(-790.000000, -515.000000)" fill="#FFFFFF">
            <path d="M911.801054,532.413399 L906.819948,532.413399 L909.686855,525.201402 L914.667961,525.201402 L918.475096,515.585938 L946.683508,515.585938 L942.876373,525.201402 L971.417278,525.201402 L975.224413,515.585938 L989.48331,515.585938 L989.494866,515.585938 L996.267133,515.585938 L991.605914,517.625726 C989.340438,518.618013 987.55453,520.473042 986.634787,522.788909 L977.085959,546.837392 L962.816032,546.837392 L968.550371,532.413399 L940.009466,532.413399 L937.142033,539.625396 L958.547713,539.625396 L955.680805,546.837392 L934.275126,546.837392 L928.210919,546.837392 L906.066715,546.837392 L911.801054,532.413399 Z M941.490212,580.216859 L938.616939,587.398108 L970.838342,587.398108 L968.002446,594.484728 L935.781043,594.484728 L930.665164,607.269719 C929.70337,609.673513 927.320207,611.335075 924.834915,611.335075 L907.490518,611.335075 L898.549574,611.335075 L899.967786,607.79203 L904.704633,607.79203 C907.189398,607.79203 909.573614,606.129939 910.535408,603.726673 L914.233075,594.484728 L882.190133,594.484728 L885.02603,587.398108 L917.068971,587.398108 L919.942244,580.216859 L911.985731,580.216859 L899.148129,580.216859 L892.577715,580.216859 L904.07186,551.491864 L910.642274,551.491864 L923.479876,551.491864 L961.279366,551.491864 L968.938444,551.491864 L980.349412,551.491864 L968.855268,580.216859 L957.444299,580.216859 L949.785748,580.216859 L941.490212,580.216859 Z M1007.57647,594.711961 L1003.45371,594.711961 L993.236805,594.711961 L986.066975,594.711961 L973.460656,594.711961 L971.727313,594.711961 L988.937229,551.491864 L990.670044,551.491864 L1003.27689,551.491864 L1010.44672,551.491864 L1020.6631,551.491864 L1024.78638,551.491864 L1007.57647,594.711961 Z M1010.44578,546.837392 L990.297988,546.837392 L1001.78171,517.989405 L1002.73895,515.585938 L1076.51898,515.585938 L1069.8204,532.413399 L1016.18711,532.413399 L1014.27316,537.221397 L1054.46302,537.221397 L1050.63564,546.837392 L1010.44578,546.837392 Z M1072.36037,551.491864 L1079.17193,551.491864 L1074.48849,553.5256 C1072.21111,554.514185 1070.41527,556.365534 1069.49335,558.675756 L1055.16403,594.579357 L1038.53201,594.579357 L1052.85026,558.673113 L1047.9279,558.673113 L1028.44205,607.269719 C1027.47846,609.673513 1025.09033,611.335075 1022.60093,611.335075 L1022.21961,611.335075 L1005.50216,611.335075 L1005.22421,611.335075 L996.267133,611.335075 L997.68746,607.79203 L1002.43313,607.79203 C1004.92306,607.79203 1007.31119,606.129939 1008.27478,603.726673 L1029.21893,551.491864 L1029.49688,551.491864 L1035.31848,551.491864 L1038.37484,551.491864 L1046.2138,551.491864 L1050.80706,551.491864 L1058.03158,551.491864 L1065.2888,551.491864 L1067.707,551.491864 L1072.36037,551.491864 Z M898.62316,546.355309 C896.342479,547.341782 894.54428,549.187849 893.617935,551.491732 L869.5536,611.335075 L852.870928,611.335075 L876.935262,551.491732 L872.058594,551.491732 L847.994259,611.335075 L831.784017,611.335075 L870.286847,515.585938 L877.473294,515.585938 L886.497089,515.585938 L908.05643,515.585938 L900.355758,534.735977 L878.796417,534.735977 L874.946081,544.310467 L882.132528,544.310467 L896.505422,544.310467 L896.503835,544.315225 L903.336356,544.315225 L898.62316,546.355309 Z M854.718205,532.209052 L835.825878,532.209052 L819.182488,532.209052 L820.597862,528.694046 L833.044534,528.694046 C835.525249,528.694046 837.905054,527.044584 838.86528,524.659813 L842.519604,515.585938 L865.609174,515.585938 L860.539476,528.175868 C859.57925,530.55959 857.199445,532.209052 854.718205,532.209052 Z M809.986848,573.434375 L821.835442,573.434375 L808.215682,607.906391 C807.259441,610.326891 804.890037,612 802.419093,612 L797.111878,612 L790,612 L791.410024,608.432332 L791.98,608.432332 C794.450419,608.432332 796.820871,606.758691 797.776588,604.338724 L809.986848,573.434375 Z M824.252158,537.528448 L856.987075,537.528448 L852.182623,549.540074 L849.300058,556.747581 L847.377643,561.551701 L844.495078,568.758676 L827.1981,612 L811.265297,612 L828.562275,568.758676 L804.591244,568.758676 L807.474338,561.551701 L831.44484,561.551701 L833.367255,556.747581 L809.396224,556.747581 L812.279318,549.540074 L815.307121,549.540074 L826.093768,549.540074 L829.057138,549.540074 L824.252158,537.528448 Z M922.935579,573.434375 L928.616819,558.806034 L923.023007,558.806034 L917.341767,573.434375 L922.935579,573.434375 Z M990.297988,587.397791 L995.243412,587.397791 L1006.87895,558.806034 L1001.93352,558.806034 L990.297988,587.397791 Z M950.376853,558.806034 L944.53454,573.434375 L950.630518,573.434375 L956.472831,558.806034 L950.376853,558.806034 Z" id="Combined-Shape-Copy-2"></path>
        </g>
    </g>
</svg>