<?xml version="1.0" encoding="UTF-8" standalone="no"?>
<svg width="24px" height="24px" viewBox="0 0 24 24" version="1.1" xmlns="http://www.w3.org/2000/svg" xmlns:xlink="http://www.w3.org/1999/xlink">
    <!-- Generator: Sketch 45.2 (43514) - http://www.bohemiancoding.com/sketch -->
    <title>twiter</title>
    <desc>Created with Sketch.</desc>
    <defs></defs>
    <g id="Symbols" stroke="none" stroke-width="1" fill="none" fill-rule="evenodd">
        <g id="layout" transform="translate(-1123.000000, -819.000000)">
            <g transform="translate(-10610.000000, -73.000000)" id="社群右下">
                <g transform="translate(11733.000000, 892.000000)">
                    <g id="-Community-icon">
                        <g id="twiter">
                            <path d="M21.8914542,5.81751533 C21.1964061,6.12607575 20.4494066,6.33388174 19.6654112,6.42755187 C20.4659366,5.94818122 21.080696,5.18858733 21.3695778,4.28337181 C20.6210039,4.72732099 19.7913542,5.05005 18.9081788,5.22400881 C18.2021106,4.47071207 17.1937793,4 16.0791835,4 C13.5768529,4 11.7380847,6.33466889 12.3032541,8.75828503 C9.08304826,8.59692053 6.2272901,7.05411843 4.3153175,4.70921668 C3.29990184,6.45116619 3.78871821,8.72994785 5.5141377,9.88390085 C4.8796997,9.86343511 4.28147031,9.6894763 3.75959389,9.39902019 C3.71708812,11.1944955 5.00406844,12.8742606 6.86802525,13.248154 C6.32253451,13.396137 5.72509227,13.4307714 5.11741716,13.3142741 C5.61016926,14.8539276 7.04119692,15.9740334 8.73827922,16.0055192 C7.1088913,17.2830538 5.05601994,17.8537331 3,17.6112928 C4.71518662,18.7109328 6.75310224,19.3524551 8.94136236,19.3524551 C16.1374321,19.3524551 20.2030305,13.2749169 19.9574416,7.82394519 C20.7146741,7.27688017 21.3719392,6.59442638 21.8914542,5.81751533 Z" id="Shape" fill="#FFFFFF" fill-rule="nonzero"></path>
                            <rect id="Rectangle-46-Copy" x="0" y="0" width="24" height="24"></rect>
                        </g>
                    </g>
                </g>
            </g>
        </g>
    </g>
</svg>